<svg width="800" height="620" viewBox="0 0 800 620" xmlns="http://www.w3.org/2000/svg" style="background:#111c1a;font-family:sans-serif">

  <!-- OKD SNO outer container -->
  <rect x="20" y="20" width="460" height="520" rx="18" fill="#0e2a23" stroke="#1d9e75" stroke-width="1.5"/>
  <text x="250" y="52" text-anchor="middle" font-size="15" font-weight="600" fill="#5DCAA5">OKD SNO — Management Cluster</text>
  <text x="250" y="70" text-anchor="middle" font-size="12" fill="#1D9E75">sno-master · 192.168.241.10</text>

  <!-- Stack existante -->
  <rect x="36" y="84" width="176" height="152" rx="10" fill="#1a3a1a" stroke="#3B6D11" stroke-width="1"/>
  <text x="124" y="108" text-anchor="middle" font-size="13" font-weight="600" fill="#97C459">Stack existante</text>
  <text x="124" y="126" text-anchor="middle" font-size="11" fill="#639922">✓ Keycloak · Vault</text>
  <text x="124" y="142" text-anchor="middle" font-size="11" fill="#639922">✓ ArgoCD · ESO</text>
  <text x="124" y="158" text-anchor="middle" font-size="11" fill="#639922">✓ Grafana · Loki</text>
  <text x="124" y="174" text-anchor="middle" font-size="11" fill="#639922">✓ Kyverno</text>
  <text x="124" y="190" text-anchor="middle" font-size="11" fill="#639922">✓ Actions Runner</text>
  <text x="124" y="206" text-anchor="middle" font-size="11" fill="#639922">✓ Harbor VM</text>
  <text x="124" y="222" text-anchor="middle" font-size="11" fill="#639922">✓ Tailscale Router</text>

  <!-- MCE Operator -->
  <rect x="228" y="84" width="236" height="64" rx="10" fill="#1e1740" stroke="#534AB7" stroke-width="1"/>
  <text x="346" y="112" text-anchor="middle" font-size="13" font-weight="600" fill="#AFA9EC">MCE Operator</text>
  <text x="346" y="130" text-anchor="middle" font-size="11" fill="#7F77DD">MultiCluster Engine</text>

  <!-- Arrow MCE → HyperShift -->
  <line x1="346" y1="148" x2="346" y2="162" stroke="#534AB7" stroke-width="1.2" marker-end="url(#arr)"/>

  <!-- HyperShift Operator -->
  <rect x="228" y="162" width="236" height="64" rx="10" fill="#1e1740" stroke="#534AB7" stroke-width="1"/>
  <text x="346" y="190" text-anchor="middle" font-size="13" font-weight="600" fill="#AFA9EC">HyperShift Operator</text>
  <text x="346" y="208" text-anchor="middle" font-size="11" fill="#7F77DD">Hosted Control Planes</text>

  <!-- Arrow HyperShift → HCP namespace -->
  <line x1="346" y1="226" x2="346" y2="248" stroke="#534AB7" stroke-width="1.2" marker-end="url(#arr)"/>

  <!-- HCP namespace -->
  <rect x="36" y="248" width="428" height="128" rx="10" fill="#2a1414" stroke="#993C1D" stroke-width="1"/>
  <text x="250" y="272" text-anchor="middle" font-size="13" font-weight="600" fill="#F0997B">Namespace : clusters-hosted</text>
  <text x="250" y="288" text-anchor="middle" font-size="11" fill="#D85A30">HostedCluster CR</text>

  <!-- HCP pods -->
  <rect x="52" y="298" width="118" height="56" rx="8" fill="#3a2020" stroke="#5a3030" stroke-width="0.8"/>
  <text x="111" y="322" text-anchor="middle" font-size="12" font-weight="600" fill="#F0997B">kube-apiserver</text>
  <text x="111" y="340" text-anchor="middle" font-size="11" fill="#D85A30">pod</text>

  <rect x="192" y="298" width="118" height="56" rx="8" fill="#3a2020" stroke="#5a3030" stroke-width="0.8"/>
  <text x="251" y="322" text-anchor="middle" font-size="12" font-weight="600" fill="#F0997B">etcd</text>
  <text x="251" y="340" text-anchor="middle" font-size="11" fill="#D85A30">pod</text>

  <rect x="332" y="298" width="118" height="56" rx="8" fill="#3a2020" stroke="#5a3030" stroke-width="0.8"/>
  <text x="391" y="322" text-anchor="middle" font-size="12" font-weight="600" fill="#F0997B">controllers</text>
  <text x="391" y="340" text-anchor="middle" font-size="11" fill="#D85A30">pods</text>

  <!-- Arrow HCP → NodePool -->
  <line x1="250" y1="376" x2="250" y2="398" stroke="#993C1D" stroke-width="1.2" marker-end="url(#arr)"/>

  <!-- NodePool -->
  <rect x="36" y="398" width="428" height="60" rx="10" fill="#2a1e08" stroke="#854F0B" stroke-width="1"/>
  <text x="250" y="424" text-anchor="middle" font-size="13" font-weight="600" fill="#EF9F27">NodePool — Azure</text>
  <text x="250" y="442" text-anchor="middle" font-size="11" fill="#BA7517">Standard_D4s_v3 Spot · autoscaling 1→5</text>

  <!-- Tailscale Subnet Router -->
  <rect x="36" y="474" width="428" height="50" rx="10" fill="#0a1a2e" stroke="#185FA5" stroke-width="1"/>
  <text x="250" y="498" text-anchor="middle" font-size="13" font-weight="600" fill="#85B7EB">Tailscale Subnet Router</text>
  <text x="250" y="514" text-anchor="middle" font-size="11" fill="#378ADD">mTLS · WireGuard · 100.x.x.x</text>

  <!-- Harbor VM -->
  <rect x="510" y="20" width="270" height="64" rx="10" fill="#1a3a1a" stroke="#3B6D11" stroke-width="1"/>
  <text x="645" y="48" text-anchor="middle" font-size="13" font-weight="600" fill="#97C459">Harbor VM</text>
  <text x="645" y="66" text-anchor="middle" font-size="11" fill="#639922">harbor.okd.lab · 192.168.241.20</text>

  <!-- Harbor dashed arrow → HyperShift -->
  <line x1="510" y1="52" x2="464" y2="192" stroke="#3B6D11" stroke-width="1" stroke-dasharray="5 3" marker-end="url(#arr-green)"/>

  <!-- Azure Workers container -->
  <rect x="510" y="104" width="270" height="260" rx="14" fill="#0a1829" stroke="#185FA5" stroke-width="1.5"/>
  <text x="645" y="132" text-anchor="middle" font-size="14" font-weight="600" fill="#85B7EB">Azure Workers</text>
  <text x="645" y="150" text-anchor="middle" font-size="11" fill="#378ADD">westeurope</text>

  <!-- worker-1 -->
  <rect x="526" y="162" width="108" height="56" rx="8" fill="#1a2a3a" stroke="#0C447C" stroke-width="0.8"/>
  <text x="580" y="186" text-anchor="middle" font-size="12" font-weight="600" fill="#85B7EB">worker-1</text>
  <text x="580" y="204" text-anchor="middle" font-size="11" fill="#378ADD">D4s_v3 Spot</text>

  <!-- worker-2 -->
  <rect x="656" y="162" width="108" height="56" rx="8" fill="#1a2a3a" stroke="#0C447C" stroke-width="0.8"/>
  <text x="710" y="186" text-anchor="middle" font-size="12" font-weight="600" fill="#85B7EB">worker-2</text>
  <text x="710" y="204" text-anchor="middle" font-size="11" fill="#378ADD">D4s_v3 Spot</text>

  <!-- Cluster Autoscaler -->
  <rect x="526" y="234" width="238" height="48" rx="8" fill="#2a1e08" stroke="#854F0B" stroke-width="0.8"/>
  <text x="645" y="256" text-anchor="middle" font-size="12" font-weight="600" fill="#EF9F27">Cluster Autoscaler</text>
  <text x="645" y="272" text-anchor="middle" font-size="11" fill="#BA7517">1 → 5 nodes</text>

  <!-- Tailscale agent -->
  <rect x="526" y="296" width="238" height="42" rx="8" fill="#0a1829" stroke="#185FA5" stroke-width="0.8"/>
  <text x="645" y="322" text-anchor="middle" font-size="12" font-weight="600" fill="#85B7EB">Tailscale agent</text>

  <!-- mTLS arrow -->
  <path d="M 464 499 C 487 499 490 350 510 350" fill="none" stroke="#185FA5" stroke-width="1.8" stroke-dasharray="7 3" marker-end="url(#arr-blue)"/>
  <text x="492" y="430" text-anchor="middle" font-size="11" fill="#378ADD">mTLS</text>

  <!-- Legend -->
  <rect x="510" y="384" width="270" height="108" rx="8" fill="#111c1a" stroke="#2a2a2a" stroke-width="0.8"/>
  <text x="522" y="404" font-size="11" fill="#888780">Légende</text>
  <line x1="522" y1="420" x2="556" y2="420" stroke="#185FA5" stroke-width="1.8" stroke-dasharray="7 3"/>
  <text x="564" y="424" font-size="11" fill="#888780">Tailscale mTLS</text>
  <line x1="522" y1="442" x2="556" y2="442" stroke="#3B6D11" stroke-width="1" stroke-dasharray="5 3"/>
  <text x="564" y="446" font-size="11" fill="#888780">Images Harbor</text>
  <line x1="522" y1="464" x2="556" y2="464" stroke="#534AB7" stroke-width="1.2" marker-end="url(#arr)"/>
  <text x="564" y="468" font-size="11" fill="#888780">Dépendance</text>
  <rect x="522" y="476" width="12" height="12" rx="2" fill="#1D9E75"/>
  <text x="542" y="487" font-size="11" fill="#888780">Déjà déployé</text>

  <defs>
    <marker id="arr" viewBox="0 0 10 10" refX="8" refY="5" markerWidth="6" markerHeight="6" orient="auto-start-reverse">
      <path d="M2 1L8 5L2 9" fill="none" stroke="#534AB7" stroke-width="1.5" stroke-linecap="round" stroke-linejoin="round"/>
    </marker>
    <marker id="arr-blue" viewBox="0 0 10 10" refX="8" refY="5" markerWidth="6" markerHeight="6" orient="auto-start-reverse">
      <path d="M2 1L8 5L2 9" fill="none" stroke="#185FA5" stroke-width="1.5" stroke-linecap="round" stroke-linejoin="round"/>
    </marker>
    <marker id="arr-green" viewBox="0 0 10 10" refX="8" refY="5" markerWidth="6" markerHeight="6" orient="auto-start-reverse">
      <path d="M2 1L8 5L2 9" fill="none" stroke="#3B6D11" stroke-width="1.5" stroke-linecap="round" stroke-linejoin="round"/>
    </marker>
  </defs>

</svg>
